<svg xmlns="http://www.w3.org/2000/svg" width="1489" height="1024"><path d="M30.984 5.217C18.85 11.619 8.153 21.373 3.501 30.277 1.036 34.995 0 46.084 0 67.75c0 30.235.13 30.951 7.426 41.023 8.625 11.906 21.923 21.195 36.003 25.148 7.264 2.039 198.304 2.591 712.238 2.058l702.312-.728 9.927-5.528c22.173-12.346 21.094-9.11 21.094-63.27V18.305l-6.825-5.045c-3.753-2.776-10.398-6.894-14.766-9.153C1460.073.314 1405.314 0 750.17 0H40.874l-9.89 5.217m2.518 432.445c-6.824 3.193-17.154 10.974-22.955 17.292L0 466.442v33.159c0 32.377.161 33.366 6.825 41.99 9.627 12.461 27.028 23.628 41.567 26.678 8.532 1.79 229.896 2.395 708.516 1.938l696.108-.665 12.377-5.704c24.224-11.166 23.607-9.491 23.607-64.088v-47.834l-8.199-6.254c-19.63-14.972 39.442-13.854-730.638-13.828l-704.252.024-12.409 5.804m8.394 429.384c-14.652 5.236-27.015 14.001-34.688 24.594C.105 901.445 0 902.072 0 934.882v33.292l13.05 13.05c23.676 23.676-56.008 21.377 738.717 21.315 691.321-.054 701.401-.124 711.976-4.923 5.9-2.677 13.997-7.196 17.992-10.041l7.265-5.173v-96.086l-9.306-7.697c-19.5-16.127 35.375-15.01-731.302-14.89-563.828.088-699.239.724-706.496 3.317" fill-rule="evenodd"/></svg>